<svg width="70" height="42" viewBox="0 0 70 42" fill="none" xmlns="http://www.w3.org/2000/svg">
<path d="M61.25 25.3465C60.646 25.3465 60.1562 25.8362 60.1562 26.4402V34.1041H58.4161C57.9872 30.3106 54.5643 27.5831 50.7709 28.0118C47.5681 28.3738 45.0408 30.9014 44.6786 34.1041H21.875V2.38538H60.1562V5.82522C60.1562 6.42924 60.646 6.91897 61.25 6.91897C61.854 6.91897 62.3438 6.42924 62.3438 5.82522V1.29163C62.3438 0.687603 61.854 0.197876 61.25 0.197876H20.7812C20.1772 0.197876 19.6875 0.687603 19.6875 1.29163V2.38538H7.16187C4.41615 2.38893 2.19105 4.61389 2.1875 7.35975V8.94788C2.1875 9.5519 2.67723 10.0416 3.28125 10.0416H4.55328L3.71875 20.0658C1.53467 20.6343 0.00765625 22.6028 0 24.8598V34.1041C0 34.7082 0.489727 35.1979 1.09375 35.1979H3.30859C3.60842 39.1091 7.02229 42.0368 10.9335 41.737C14.4281 41.4692 17.2047 38.6924 17.4727 35.1979C17.4825 35.1979 17.4902 35.2034 17.5 35.2034H19.6875C19.6875 35.8074 20.1772 36.2971 20.7812 36.2971H44.7781C45.5573 40.0357 49.2197 42.4347 52.9583 41.6555C55.6512 41.0943 57.7553 38.9901 58.3166 36.2971H61.25C61.854 36.2971 62.3438 35.8074 62.3438 35.2034V26.4402C62.3438 25.8361 61.854 25.3465 61.25 25.3465ZM10.3906 39.5729C7.67238 39.5729 5.46875 37.3692 5.46875 34.651C5.46875 31.9328 7.67238 29.7291 10.3906 29.7291C13.1089 29.7291 15.3125 31.9328 15.3125 34.651C15.3095 37.368 13.1076 39.5699 10.3906 39.5729ZM19.6875 33.0104H17.5C17.4359 33.0171 17.3724 33.0298 17.3108 33.0487C16.4311 29.227 12.62 26.842 8.7984 27.7217C6.16328 28.3282 4.10143 30.3787 3.48031 33.0104H2.1875V24.8598C2.18928 23.3214 3.43602 22.0747 4.97437 22.0729H19.6875V33.0104ZM19.6875 19.8854H5.92812L6.74844 10.0416H19.6875V19.8854ZM19.6875 7.85413H4.375V7.35975C4.37678 5.82139 5.62352 4.57465 7.16187 4.57288H19.6875V7.85413ZM56.2673 35.1541C56.1267 37.6564 54.0545 39.6121 51.5484 39.6079H51.5473C49.2525 39.6028 47.2931 37.95 46.9011 35.689C47.0928 35.354 47.0709 34.9378 46.8453 34.6248C46.9915 32.023 49.2192 30.0322 51.8211 30.1784C54.4228 30.3245 56.4136 32.5522 56.2673 35.1541Z" fill="#333333"/>
<path d="M60.1562 8.94788H44.8438C44.2397 8.94788 43.75 9.4376 43.75 10.0416C43.75 10.6456 44.2397 11.1354 44.8438 11.1354H60.1562C60.7603 11.1354 61.25 10.6456 61.25 10.0416C61.25 9.4376 60.7603 8.94788 60.1562 8.94788Z" fill="#333333"/>
<path d="M62.3438 20.9791H38.2812C37.6772 20.9791 37.1875 21.4688 37.1875 22.0729C37.1875 22.6769 37.6772 23.1666 38.2812 23.1666H62.3438C62.9478 23.1666 63.4375 22.6769 63.4375 22.0729C63.4375 21.4688 62.9478 20.9791 62.3438 20.9791Z" fill="#333333"/>
<path d="M60.1562 14.4166H48.125C47.521 14.4166 47.0312 14.9064 47.0312 15.5104C47.0312 16.1144 47.521 16.6041 48.125 16.6041H60.1562C60.7603 16.6041 61.25 16.1144 61.25 15.5104C61.25 14.9064 60.7603 14.4166 60.1562 14.4166Z" fill="#333333"/>
<path d="M64.5312 11.1354H66.7188C67.3228 11.1354 67.8125 10.6456 67.8125 10.0416C67.8125 9.4376 67.3228 8.94788 66.7188 8.94788H64.5312C63.9272 8.94788 63.4375 9.4376 63.4375 10.0416C63.4375 10.6456 63.9272 11.1354 64.5312 11.1354Z" fill="#333333"/>
<path d="M67.8125 20.9791H65.625C65.021 20.9791 64.5312 21.4688 64.5312 22.0729C64.5312 22.6769 65.021 23.1666 65.625 23.1666H67.8125C68.4165 23.1666 68.9062 22.6769 68.9062 22.0729C68.9062 21.4688 68.4165 20.9791 67.8125 20.9791Z" fill="#333333"/>
<path d="M68.9062 14.4166H64.5312C63.9272 14.4166 63.4375 14.9064 63.4375 15.5104C63.4375 16.1144 63.9272 16.6041 64.5312 16.6041H68.9062C69.5103 16.6041 70 16.1144 70 15.5104C70 14.9064 69.5103 14.4166 68.9062 14.4166Z" fill="#333333"/>
</svg>
