<svg width="70" height="70" viewBox="0 0 70 70" fill="none" xmlns="http://www.w3.org/2000/svg">
<path d="M25.3638 43.713C24.6938 42.5552 23.4468 41.836 22.1094 41.836H17.1582V38.8657C19.4928 38.4096 21.3281 36.4293 21.5169 33.9853C21.5605 33.4206 21.1382 32.9276 20.5737 32.8839C20.0053 32.8385 19.5159 33.2627 19.4723 33.8271C19.3384 35.5582 17.8717 36.9141 16.1328 36.9141C14.2857 36.9141 12.7832 35.4115 12.7832 33.5645C12.7832 31.7174 14.2857 30.2149 16.1328 30.2149C16.7219 30.2149 17.3008 30.3696 17.8069 30.6623C18.2972 30.9458 18.9244 30.7784 19.2079 30.2881C19.4914 29.798 19.3239 29.1707 18.8337 28.8872C18.3136 28.5864 17.7463 28.3765 17.1582 28.2631V25.2723C18.5434 24.8358 19.5508 23.5393 19.5508 22.0117C19.5508 20.4819 18.5404 19.1836 17.1519 18.7489L17.1725 16.6178C17.1758 16.2761 17.4177 15.9876 17.7606 15.916C21.4517 15.1461 24.1308 11.8338 24.1308 8.04031C24.1308 3.68472 20.4821 0.00274902 16.163 -0.00012207C16.1612 -0.00012207 16.16 -0.00012207 16.1584 -0.00012207C13.0451 1.46484e-05 10.1459 1.97478 8.77171 5.03195C8.53957 5.54847 8.77007 6.1555 9.2866 6.38765C9.80326 6.61939 10.41 6.38943 10.6423 5.87277C11.6861 3.55074 13.851 2.0508 16.1584 2.0508H16.1616C19.0197 2.05271 22.0801 4.45978 22.0801 8.04044C22.0801 10.8681 20.0874 13.336 17.3418 13.9087C16.0476 14.1787 15.1347 15.2845 15.1219 16.5981L15.101 18.7535C13.719 19.1919 12.7148 20.4866 12.7148 22.0117C12.7148 23.5393 13.7222 24.8358 15.1074 25.2723V28.2629C12.6184 28.7435 10.7324 30.9373 10.7324 33.5645C10.7324 36.1917 12.6184 38.3854 15.1074 38.866V41.836H10.1561C8.81875 41.836 7.57173 42.5552 6.90168 43.713L0.9298 54.0354C0.258101 55.1967 0.258101 56.6395 0.9298 57.8009L6.90181 68.1231C7.57173 69.2807 8.81875 70 10.1561 70H22.1094C23.4468 70 24.6938 69.2807 25.3639 68.123L31.3358 57.8006C32.0075 56.6393 32.0075 55.1965 31.3358 54.0351L25.3638 43.713ZM16.1328 20.6445C16.8867 20.6445 17.5 21.2579 17.5 22.0117C17.5 22.7656 16.8867 23.3789 16.1328 23.3789C15.3789 23.3789 14.7656 22.7656 14.7656 22.0117C14.7656 21.2579 15.3789 20.6445 16.1328 20.6445ZM29.5605 56.7738L23.5887 67.0961C23.2841 67.6223 22.7173 67.9492 22.1094 67.9492H10.1561C9.54828 67.9492 8.98131 67.6222 8.67697 67.0961L2.70509 56.774C2.3998 56.246 2.3998 55.5901 2.70509 55.0621L8.67683 44.7399C8.98144 44.2136 9.54828 43.8867 10.1561 43.8867H22.1094C22.7173 43.8867 23.2843 44.2138 23.5886 44.7399L29.5605 55.062C29.8658 55.5901 29.8658 56.2458 29.5605 56.7738Z" fill="#333333"/>
<path d="M21.2433 49.4465C20.8173 48.7087 20.0234 48.2502 19.1714 48.2502H13.0937C12.2416 48.2502 11.4477 48.7087 11.0217 49.4465L7.98284 54.7102C7.55683 55.4481 7.55683 56.3649 7.98284 57.1028L8.46313 57.9346C8.74642 58.4251 9.37355 58.5927 9.86382 58.3099C10.3542 58.0267 10.5223 57.3996 10.2391 56.9092L9.75882 56.0774C9.69798 55.972 9.69798 55.841 9.75882 55.7356L12.7977 50.4719C12.8585 50.3665 12.9718 50.301 13.0937 50.301H19.1712C19.293 50.301 19.4064 50.3665 19.4672 50.4719L22.5061 55.7356C22.5669 55.841 22.5669 55.972 22.5061 56.0774L19.4672 61.3411C19.4064 61.4465 19.293 61.512 19.1712 61.512H13.0937C12.8365 61.5342 12.7173 61.1811 12.6071 61.0109C12.3238 60.5201 11.6967 60.3529 11.2064 60.6353C10.7158 60.9185 10.5478 61.5456 10.8308 62.036L11.0217 62.3665C11.4477 63.1043 12.2416 63.5627 13.0937 63.5627H19.1712C20.0233 63.5627 20.8172 63.1043 21.2432 62.3665L24.282 57.1028C24.7081 56.3649 24.7081 55.4481 24.282 54.7102L21.2433 49.4465Z" fill="#333333"/>
<path d="M69.07 54.0352L67.3311 51.0296C67.0475 50.5393 66.4203 50.3719 65.93 50.6555C65.4399 50.9391 65.2722 51.5663 65.5559 52.0566L67.2949 55.0621C67.6002 55.5901 67.6002 56.2459 67.2949 56.7739L61.3231 67.0962C61.0185 67.6224 60.4517 67.9493 59.8438 67.9493H47.8905C47.2827 67.9493 46.7157 67.6223 46.4113 67.0962L40.4395 56.7741C40.1342 56.2461 40.1342 55.5902 40.4395 55.0622L46.4112 44.74C46.7158 44.2137 47.2827 43.8868 47.8905 43.8868H59.8438C60.4517 43.8868 61.0187 44.2139 61.323 44.74L63.1829 47.955C63.4666 48.4453 64.0939 48.6126 64.584 48.3291C65.0741 48.0455 65.2418 47.4183 64.9581 46.928L63.098 43.7129C62.4282 42.5552 61.1812 41.8359 59.8438 41.8359H54.8926V38.866C57.3815 38.3854 59.2676 36.1916 59.2676 33.5644C59.2676 30.9372 57.3815 28.7434 54.8926 28.2629V25.2723C56.2778 24.8358 57.2851 23.5392 57.2851 22.0117C57.2851 20.4818 56.2748 19.1835 54.8863 18.7489L54.9069 16.6177C54.9102 16.2761 55.1521 15.9876 55.4949 15.9159C59.1861 15.1461 61.8652 11.8338 61.8652 8.04026C61.8652 7.73579 61.8477 7.42926 61.8134 7.1293C61.7489 6.56671 61.2404 6.16202 60.6779 6.22723C60.1154 6.29176 59.7115 6.79995 59.7759 7.36268C59.8014 7.58553 59.8143 7.81358 59.8143 8.04026C59.8143 10.8679 57.8216 13.3358 55.076 13.9085C53.7819 14.1785 52.869 15.2843 52.8561 16.5979L52.8352 18.7533C51.4534 19.1919 50.4492 20.4866 50.4492 22.0117C50.4492 23.5392 51.4565 24.8358 52.8418 25.2723V28.2629C50.3528 28.7434 48.4668 30.9372 48.4668 33.5644C48.4668 36.1916 50.3528 38.3854 52.8418 38.866V41.8359H47.8905C46.5531 41.8359 45.3061 42.5552 44.636 43.7129L38.6642 54.0353C37.9925 55.1966 37.9925 56.6394 38.6642 57.8008L44.6362 68.1231C45.306 69.2808 46.5531 70.0001 47.8905 70.0001H59.8438C61.1812 70.0001 62.4282 69.2808 63.0983 68.1231L69.0702 57.8007C69.7417 56.6393 69.7417 55.1966 69.07 54.0352ZM53.8672 20.6445C54.621 20.6445 55.2344 21.2578 55.2344 22.0117C55.2344 22.7656 54.621 23.3789 53.8672 23.3789C53.1133 23.3789 52.5 22.7656 52.5 22.0117C52.5 21.2578 53.1133 20.6445 53.8672 20.6445ZM50.5176 33.5644C50.5176 31.7174 52.0201 30.2148 53.8672 30.2148C55.7142 30.2148 57.2168 31.7174 57.2168 33.5644C57.2168 35.4115 55.7142 36.914 53.8672 36.914C52.0201 36.914 50.5176 35.4115 50.5176 33.5644Z" fill="#333333"/>
<path d="M47.0207 6.38764C47.5251 6.61787 48.1437 6.39461 48.3764 5.87275C49.4203 3.55072 51.5851 2.05078 53.8924 2.05078H53.8958C55.3608 2.05174 56.8438 2.66998 57.9647 3.74705C58.3732 4.13971 59.0223 4.12631 59.4144 3.71834C59.8068 3.30996 59.794 2.66096 59.3857 2.26857C57.8869 0.828242 55.8864 0.00136719 53.8971 0C53.8954 0 53.8941 0 53.8925 0C50.7793 0 47.88 1.97477 46.506 5.03193C46.2737 5.54846 46.5042 6.15535 47.0207 6.38764Z" fill="#333333"/>
<path d="M56.9058 48.2502H50.8283C49.9762 48.2502 49.1823 48.7087 48.7563 49.4465L45.7175 54.7102C45.2914 55.4481 45.2914 56.3649 45.7175 57.1028L48.7563 62.3665C49.1823 63.1043 49.9762 63.5627 50.8283 63.5627H56.9058C57.7579 63.5627 58.5518 63.1043 58.9778 62.3665L62.0167 57.1028C62.4427 56.3649 62.4427 55.4481 62.0167 54.7102L58.9778 49.4465C58.5518 48.7087 57.7579 48.2502 56.9058 48.2502ZM60.2405 56.0774L57.2017 61.3411C57.1409 61.4465 57.0275 61.512 56.9057 61.512H50.8281C50.7063 61.512 50.593 61.4465 50.5321 61.3411L47.4933 56.0774C47.4325 55.972 47.4325 55.841 47.4933 55.7356L50.5321 50.4719C50.593 50.3665 50.7063 50.301 50.8281 50.301H56.9057C57.0275 50.301 57.1409 50.3665 57.2017 50.4719L60.2405 55.7356C60.3014 55.8411 60.3014 55.972 60.2405 56.0774Z" fill="#333333"/>
</svg>
