<svg width="21" height="21" viewBox="0 0 21 21" fill="none" xmlns="http://www.w3.org/2000/svg">
<path d="M20.131 6.93291L20.125 6.88071C20.114 6.81539 20.0941 6.75231 20.066 6.69364L17.1248 1.42303C17.1248 1.42303 16.7497 0.90625 16.6606 0.90625H4.12699L0.357619 6.51483L0.313055 6.56651L0.30702 6.5908C0.275178 6.64775 0.249027 6.7084 0.229033 6.77167L0.213714 6.8218C0.170283 6.98224 0.172391 7.15369 0.219749 7.31274L0.237389 7.36907C0.261063 7.43573 0.290308 7.49671 0.32466 7.55097L9.43753 20.4017L9.4561 20.4311C9.50299 20.4983 9.56008 20.5577 9.62972 20.612L9.68264 20.6487C9.73463 20.6849 9.78894 20.7138 9.86786 20.7458L9.91938 20.765C10.0085 20.7903 10.086 20.8022 10.1617 20.8022C10.2383 20.8022 10.313 20.7908 10.4138 20.7619L10.4755 20.7376C10.5359 20.7138 10.5902 20.6844 10.6556 20.6394L10.6965 20.611C10.7666 20.5557 10.8227 20.4957 10.8538 20.4487L19.9783 7.58456C20.059 7.46473 20.1116 7.32443 20.1315 7.17631L20.1385 7.10964L20.1422 7.05693L20.131 6.93291V6.93291ZM15.2383 6.5908L16.5371 3.97436L17.8351 6.5908H15.2383ZM14.4593 8.14113H17.5408L12.4048 15.3838L14.4593 8.14113ZM13.6971 5.80633L11.8212 2.97336H15.1032L13.6971 5.80633ZM7.6884 8.14113H12.6364L10.1617 16.8628L7.6884 8.14113ZM8.17907 6.5908L10.1617 3.59556L12.1443 6.5908H8.17907ZM6.78273 5.57172L5.92301 2.97336H8.50262L6.78273 5.57172V5.57172ZM7.91957 15.3843L2.78311 8.14113H5.86499L7.91957 15.3843ZM4.43569 3.99244L5.29587 6.5908H2.7158L4.43569 3.99244V3.99244Z" fill="#000000"/>
</svg>
